<?xml version="1.0" standalone="no"?>
<!DOCTYPE svg PUBLIC "-//W3C//DTD SVG 20010904//EN"
 "http://www.w3.org/TR/2001/REC-SVG-20010904/DTD/svg10.dtd">
<svg version="1.0" xmlns="http://www.w3.org/2000/svg"
 width="512.000000pt" height="512.000000pt" viewBox="0 0 512.000000 512.000000"
 preserveAspectRatio="xMidYMid meet">
<metadata>
Created by potrace 1.11, written by Peter Selinger 2001-2013
</metadata>
<g transform="translate(0.000000,512.000000) scale(0.100000,-0.100000)"
fill="#000000" stroke="none">
<path d="M2158 5114 c-2 -2 -18 -6 -36 -9 -154 -27 -304 -148 -392 -316 -52
-100 -69 -167 -66 -260 7 -211 179 -350 417 -337 43 3 79 3 79 2 0 -1 -6 -9
-13 -16 -66 -68 -132 -175 -167 -270 -31 -84 -32 -93 -34 -223 -1 -66 -5 -125
-8 -131 -4 -5 -6 -50 -5 -100 2 -75 6 -98 30 -146 48 -98 200 -235 326 -296
l56 -26 -44 -8 c-25 -4 -63 -10 -85 -13 -23 -3 -48 -8 -56 -10 -8 -2 -31 -6
-50 -9 -19 -3 -45 -8 -58 -10 -24 -5 -206 -14 -416 -21 -183 -6 -261 -35 -297
-110 -18 -37 -17 -128 2 -151 6 -8 9 -14 5 -14 -9 0 63 -101 90 -126 13 -12
20 -25 17 -28 -10 -9 -5 -77 6 -90 7 -9 4 -30 -10 -67 -23 -60 -26 -141 -8
-213 10 -40 9 -51 -10 -88 -29 -62 -14 -137 42 -204 32 -37 104 -74 147 -74
25 0 30 -4 30 -24 0 -32 102 -136 174 -176 32 -18 58 -40 61 -53 4 -12 10 -31
15 -42 4 -11 23 -56 41 -100 18 -44 36 -84 41 -90 13 -15 9 -35 -7 -35 -9 0
-23 -16 -32 -35 -11 -23 -22 -34 -32 -30 -27 8 -115 27 -141 30 -14 2 -38 7
-55 10 -39 9 -269 10 -315 2 -94 -17 -139 -31 -190 -60 -94 -51 -134 -123
-131 -232 2 -96 6 -115 49 -203 72 -152 286 -274 539 -309 108 -15 370 -9 468
11 101 21 229 63 316 106 l58 28 -1 -32 c-1 -39 10 -110 22 -142 5 -13 8 -24
5 -24 -2 0 11 -30 30 -68 73 -143 181 -213 396 -257 79 -17 246 -22 329 -12
166 21 346 109 439 214 109 122 116 254 22 408 -37 59 -174 193 -276 268 -80
59 -238 147 -265 147 -16 0 -51 22 -85 53 -36 35 -88 59 -133 62 -29 1 -39 10
-73 61 -39 57 -113 194 -105 194 6 0 207 -90 311 -139 144 -69 240 -146 330
-264 54 -71 59 -66 9 8 -42 64 -137 155 -216 207 -58 39 -218 118 -323 159
-33 13 -62 26 -65 29 -3 3 -18 13 -35 22 -43 24 -41 34 7 42 24 4 62 18 84 31
41 24 103 103 105 134 1 9 2 25 3 36 2 29 16 65 25 65 4 0 20 22 34 48 21 39
34 51 68 62 38 13 109 80 109 103 0 5 33 45 74 88 118 123 156 201 142 294 -7
41 -15 52 -95 122 -48 43 -109 96 -136 118 -27 22 -56 47 -65 55 -9 8 -31 28
-50 44 -64 53 -230 210 -230 218 0 5 8 8 17 8 43 0 157 36 243 77 169 81 269
209 274 352 2 36 8 80 15 96 7 17 15 41 17 55 3 14 10 43 16 65 6 22 11 85 11
140 0 106 -24 218 -64 296 l-20 40 38 -20 c72 -36 182 -53 253 -38 140 30 239
115 294 252 30 75 38 118 41 220 3 144 -31 254 -108 341 -161 183 -444 195
-614 26 -86 -85 -122 -188 -118 -335 2 -96 6 -119 32 -212 5 -17 1 -16 -31 8
-76 59 -213 115 -326 134 -100 17 -350 3 -390 -22 -17 -10 -11 5 18 48 98 146
119 321 55 458 -48 104 -127 179 -217 209 -35 11 -171 22 -178 14z m685 -2585
c66 -34 110 -64 167 -116 19 -17 46 -40 60 -52 l25 -20 -29 -1 c-18 0 -35 8
-46 23 -24 30 -123 83 -172 91 -20 4 -62 7 -93 7 l-56 1 17 27 c33 50 49 70
57 71 4 0 36 -14 70 -31z m-516 -1117 c28 -5 78 -8 111 -7 l60 2 27 -71 c16
-39 44 -103 63 -143 l35 -71 -22 -35 c-11 -19 -21 -42 -21 -51 0 -21 -10 -20
-41 7 -15 12 -29 37 -33 57 -7 38 -48 90 -71 90 -8 0 -15 3 -15 8 0 4 -27 15
-61 26 l-60 19 -43 86 c-24 47 -47 96 -51 109 l-7 23 39 -20 c22 -10 62 -24
90 -29z"/>
</g>
</svg>
